# Blender v2.78 (sub 0) OBJ File: 'ap01_cobertura.blend'
# www.blender.org
mtllib ap01_Rooftop exitobj.mtl
o Cube_Cube.001
v 4.587649 6.869279 11.268640
v 4.587649 7.161255 11.268640
v 1.733222 7.474782 11.268640
v 1.733222 6.869279 11.268640
v 1.733222 6.913909 9.268486
v 1.733222 7.474782 9.268486
v 1.733222 7.474782 8.529644
v 1.733222 6.869279 8.529644
v 4.587649 7.161255 8.529644
v 4.587649 6.869279 8.529644
v 4.587649 6.869279 10.536549
v 4.587649 7.161255 10.536549
v 4.587649 4.915753 10.536550
v 4.587649 4.915753 11.268641
v 1.733222 7.474781 10.536549
v 1.733222 4.915754 8.529645
v 4.587649 4.915753 8.529644
v 1.733222 4.915754 9.268486
v 1.733222 4.915754 11.268641
v 4.587649 7.161255 9.268486
v 4.587649 6.869279 9.268486
v 4.587649 4.915753 9.268486
v 1.733222 6.913909 10.536549
v 1.733222 4.915754 10.536550
v 1.733222 4.915754 10.536550
v 1.733222 4.915754 11.268641
v 1.733222 6.913909 9.268486
v 1.733222 6.913909 10.536549
v 4.587649 4.915753 10.536550
v 4.587649 4.915753 9.268486
v 1.733222 4.915754 9.268486
v 1.733222 4.915754 8.529645
v 4.587649 4.915753 8.529644
v 4.587649 4.915753 11.268641
v 4.720818 4.915753 11.396267
v 4.720818 4.915753 10.595866
v 1.600052 4.915754 8.401702
v 1.600053 4.915754 9.284593
v 4.720818 4.915753 8.401702
v 1.600052 4.915754 11.396268
v 4.720818 4.915753 9.209484
v 1.600052 4.915754 10.527822
v 4.720818 4.812394 11.396267
v 4.720818 4.812394 10.595866
v 1.600052 4.812395 8.401702
v 1.600053 4.812395 9.284593
v 4.720818 4.812394 8.401702
v 1.600052 4.812395 11.396268
v 4.720818 4.812394 9.209484
v 1.600052 4.812395 10.527822
vt 0.9825 0.5236
vt 0.9825 0.6783
vt 0.6259 0.6783
vt 0.6259 0.5236
vt 0.4434 0.5236
vt 0.4434 0.6783
vt 0.3760 0.6783
vt 0.3760 0.5236
vt 0.0194 0.6783
vt 0.0194 0.5236
vt 0.3577 0.6878
vt 0.3577 0.8936
vt 0.1524 0.8936
vt 0.1524 0.6878
vt 0.3577 0.0088
vt 0.1524 0.0088
vt 0.9028 0.7536
vt 0.9028 0.9409
vt 0.0737 0.9409
vt 0.0737 0.7536
vt 0.3760 0.0131
vt 0.0194 0.0131
vt 0.4434 0.0131
vt 0.9825 0.0131
vt 0.6259 0.0131
vt 0.9028 0.2403
vt 0.9028 0.4293
vt 0.0737 0.4293
vt 0.0737 0.2403
vt 0.9204 0.0088
vt 0.9204 0.6878
vt 0.7133 0.6878
vt 0.7133 0.0088
vt 0.9204 0.8936
vt 0.7133 0.8936
vt 0.5591 0.5236
vt 0.5591 0.6783
vt 0.5591 0.0131
vt 0.5591 0.0131
vt 0.6259 0.0131
vt 0.4434 0.5236
vt 0.5591 0.5236
vt 0.7504 0.0138
vt 0.3948 0.0138
vt 0.3948 0.0138
vt 0.7504 0.0138
vt 0.4434 0.0131
vt 0.3760 0.0131
vt 0.9576 0.0138
vt 0.9576 0.0138
vt 0.9825 0.0131
vt 0.1895 0.0138
vt 0.1895 0.0138
vt 0.0194 0.0131
vt 0.7046 0.0293
vt 0.9327 0.0293
vt 0.9725 0.0902
vt 0.7231 0.0902
vt 0.0468 0.0001
vt 0.8341 0.0001
vt 0.9704 0.2066
vt 0.0296 0.2066
vt 0.0616 0.0039
vt 0.9312 0.0039
vt 0.9773 0.1139
vt 0.0266 0.1139
vt 0.0807 0.0449
vt 0.9347 0.0449
vt 0.9727 0.1295
vt 0.0390 0.1295
vt 0.3094 0.0293
vt 0.2910 0.0902
vt 0.0791 0.0293
vt 0.0392 0.0902
vt 0.1703 0.0001
vt 0.9575 0.0001
vt 0.9669 0.2100
vt 0.0331 0.2100
vt 0.9725 0.1375
vt 0.7231 0.1375
vt 0.9704 0.3669
vt 0.0296 0.3669
vt 0.9773 0.1471
vt 0.0266 0.1471
vt 1.0058 0.1626
vt 0.0059 0.1626
vt 0.2910 0.1375
vt 0.0392 0.1375
vt 0.9669 0.3730
vt 0.0331 0.3730
vn 0.7071 0.0000 0.7071
vn 0.6049 0.5421 0.5833
vn -0.5475 0.6109 0.5718
vn -0.7071 0.0000 0.7071
vn -0.8321 0.0000 0.5547
vn -0.6674 0.7447 0.0000
vn -0.5475 0.6109 -0.5718
vn -0.7071 -0.0000 -0.7071
vn 0.6049 0.5421 -0.5833
vn 0.7071 -0.0000 -0.7071
vn 1.0000 -0.0000 0.0000
vn 0.7447 0.6674 0.0000
vn 0.3162 0.0000 0.9487
vn -0.4472 0.0000 0.8944
vn -0.3162 0.0000 0.9487
vn 0.0000 0.4619 0.8869
vn 0.0000 0.8321 0.5547
vn 0.0000 0.0000 0.0000
vn 0.0000 0.7071 0.7071
vn 0.0000 0.4740 0.8805
vn 0.5774 0.5774 0.5774
vn 0.7071 0.7071 0.0000
vn -0.5774 0.5774 -0.5774
vn -0.7347 0.6784 0.0000
vn 0.5774 0.5774 -0.5774
vn -0.5774 0.5774 0.5774
vn -0.7220 0.6919 0.0000
vn -1.0000 0.0000 0.0000
usemtl None_placa_concreto_suja.png
s 1
f 1/1/1 2/2/2 3/3/3 4/4/4
f 5/5/5 6/6/6 7/7/7 8/8/8
f 8/8/8 7/7/7 9/9/9 10/10/10
f 11/11/11 12/12/12 2/13/2 1/14/1
f 13/15/1 11/11/11 1/14/1 14/16/13
f 15/17/6 3/18/3 2/19/2 12/20/12
f 16/21/4 8/8/8 10/10/10 17/22/1
f 18/23/14 5/5/5 8/8/8 16/21/4
f 14/24/13 1/1/1 4/4/4 19/25/15
f 7/26/7 6/27/6 20/28/12 9/29/9
f 17/30/1 10/31/10 21/32/11 22/33/1
f 10/31/10 9/34/9 20/35/12 21/32/11
f 23/36/5 15/37/6 6/6/6 5/5/5
f 4/4/4 3/3/3 15/37/6 23/36/5
f 19/25/15 4/4/4 23/36/5 24/38/14
f 6/27/6 15/17/6 12/20/12 20/28/12
f 22/33/1 21/32/11 11/11/11 13/15/1
f 21/32/11 20/35/12 12/12/12 11/11/11
f 19/25/15 24/38/14 25/39/16 26/40/17
f 23/36/5 5/5/5 27/41/18 28/42/18
f 22/43/1 13/44/1 29/45/19 30/46/19
f 5/5/5 18/23/14 31/47/20 27/41/18
f 24/38/14 23/36/5 28/42/18 25/39/16
f 18/23/14 16/21/4 32/48/17 31/47/20
f 17/49/1 22/43/1 30/46/19 33/50/17
f 14/24/13 19/25/15 26/40/17 34/51/17
f 13/44/1 14/52/13 34/53/17 29/45/19
f 16/21/4 17/22/1 33/54/17 32/48/17
f 29/55/19 34/56/17 35/57/21 36/58/22
f 31/59/20 32/60/17 37/61/23 38/62/24
f 32/63/17 33/64/17 39/65/25 37/66/23
f 34/67/17 26/68/17 40/69/26 35/70/21
f 30/71/19 29/55/19 36/58/22 41/72/22
f 33/73/17 30/71/19 41/72/22 39/74/25
f 26/75/17 25/76/16 42/77/27 40/78/26
f 36/58/22 35/57/21 43/79/1 44/80/11
f 38/62/24 37/61/23 45/81/8 46/82/28
f 37/66/23 39/65/25 47/83/10 45/84/8
f 35/70/21 40/69/26 48/85/4 43/86/1
f 41/72/22 36/58/22 44/80/11 49/87/11
f 39/74/25 41/72/22 49/87/11 47/88/10
f 40/78/26 42/77/27 50/89/28 48/90/4
