# Blender v2.78 (sub 0) OBJ File: 'ap01_terrio.blend'
# www.blender.org
mtllib Double door.mtl
o porta_Plane.006
v -0.054607 -0.119589 -0.550509
v -0.034343 -0.119589 -0.550509
v -0.054607 -0.142196 -0.550509
v -0.034343 -0.142196 -0.550509
v -0.968986 -1.000000 -0.558669
v -0.968986 1.272852 -0.558670
v -0.865928 -0.856493 -0.558669
v -0.865928 1.129345 -0.558670
v -0.103058 -0.856493 -0.558669
v -0.103058 1.129345 -0.558670
v -0.865928 -0.856493 -0.511718
v -0.865928 1.129345 -0.511718
v -0.103058 -0.856493 -0.511718
v -0.103058 1.129345 -0.511718
v -0.034343 -0.009725 -0.550509
v -0.054607 -0.009725 -0.550509
v -0.968986 0.378615 -0.558670
v -0.865928 0.348032 -0.558670
v -0.103058 0.348032 -0.558670
v -0.865928 0.348032 -0.511718
v -0.103058 0.348032 -0.511718
v -0.034343 0.012882 -0.550509
v -0.968986 0.825734 -0.558670
v -0.865928 0.738688 -0.558670
v -0.865928 0.738688 -0.511718
v -0.054607 0.012882 -0.550509
v -0.103058 0.738688 -0.558670
v -0.103058 0.738688 -0.511718
v -0.078223 0.076550 -0.546182
v -0.013264 0.076550 -0.546182
v -0.241678 -1.000000 -0.558669
v -0.241678 1.272852 -0.558670
v -0.293328 -0.856493 -0.558669
v -0.293328 1.129345 -0.558670
v -0.293328 -0.856493 -0.511718
v -0.293328 1.129345 -0.511718
v -0.293328 0.348032 -0.511718
v -0.078223 -0.243272 -0.546182
v -0.013264 -0.243272 -0.546182
v -0.293328 0.738688 -0.511718
v -0.013264 -0.243272 -0.562020
v -0.628114 -1.000000 -0.558669
v -0.597564 -0.856493 -0.558669
v -0.597564 -0.856493 -0.511718
v -0.597564 0.348032 -0.511718
v -0.597564 0.738688 -0.511718
v -0.078223 -0.243272 -0.562020
v -0.628114 1.272852 -0.558670
v -0.597564 1.129345 -0.558670
v -0.597564 1.129345 -0.511718
v -0.013264 0.076550 -0.562020
v -0.078223 0.076550 -0.562020
v -0.293328 0.738688 -0.511718
v -0.293328 0.348032 -0.511718
v -0.597564 0.348032 -0.511718
v -0.597564 0.738688 -0.511718
v -0.293328 0.738688 -0.542618
v -0.293328 0.348032 -0.542618
v -0.597564 0.348032 -0.542618
v -0.597564 0.738688 -0.542618
v -0.318366 0.706538 -0.542618
v -0.318366 0.380182 -0.542618
v -0.572526 0.380182 -0.542618
v -0.572526 0.706538 -0.542618
v -0.318366 0.706538 -0.509725
v -0.318366 0.380182 -0.509725
v -0.572526 0.380182 -0.509725
v -0.572526 0.706538 -0.509725
v -0.968986 1.272852 -0.481255
v -0.968986 -1.000000 -0.481255
v -0.968986 0.378615 -0.481255
v -0.968986 0.825734 -0.481255
v -0.241678 -1.000000 -0.481255
v -0.241678 1.272852 -0.481255
v -0.628114 1.272852 -0.481255
v -0.628114 -1.000000 -0.481255
v -0.054607 -0.142196 -0.600285
v -0.054607 -0.119589 -0.600285
v -0.034343 -0.119589 -0.600285
v -0.034343 -0.142196 -0.600285
v -0.034343 -0.009725 -0.600285
v -0.054607 -0.009725 -0.600285
v -0.034343 0.012882 -0.600285
v -0.054607 0.012882 -0.600285
v -0.049551 -0.132534 -0.584987
v -0.039399 -0.132534 -0.584987
v -0.049551 -0.132534 -0.596312
v -0.039399 -0.132534 -0.596312
v -0.049551 -0.007678 -0.596312
v -0.049551 -0.007678 -0.584987
v -0.039399 -0.007678 -0.584987
v -0.039399 -0.007678 -0.596312
v 0.054607 -0.119589 -0.550509
v 0.034343 -0.119589 -0.550509
v 0.054607 -0.142196 -0.550509
v 0.034343 -0.142196 -0.550509
v 0.968986 -1.000000 -0.558669
v 0.968986 1.272852 -0.558670
v 0.000000 -1.000000 -0.558669
v 0.000000 1.272852 -0.558670
v 0.865928 -0.856493 -0.558669
v 0.865928 1.129345 -0.558670
v 0.103058 -0.856493 -0.558669
v 0.103058 1.129345 -0.558670
v 0.865928 -0.856493 -0.511718
v 0.865928 1.129345 -0.511718
v 0.103058 -0.856493 -0.511718
v 0.103058 1.129345 -0.511718
v 0.034343 -0.009725 -0.550509
v 0.054607 -0.009725 -0.550509
v 0.968986 0.378615 -0.558670
v 0.000000 0.378615 -0.558670
v 0.865928 0.348032 -0.558670
v 0.103058 0.348032 -0.558670
v 0.865928 0.348032 -0.511718
v 0.103058 0.348032 -0.511718
v 0.034343 0.012882 -0.550509
v 0.968986 0.825734 -0.558670
v 0.865928 0.738688 -0.558670
v 0.865928 0.738688 -0.511718
v 0.054607 0.012882 -0.550509
v 0.000000 0.825734 -0.558670
v 0.103058 0.738688 -0.558670
v 0.103058 0.738688 -0.511718
v 0.078223 0.076550 -0.546182
v 0.013264 0.076550 -0.546182
v 0.241678 -1.000000 -0.558669
v 0.241678 1.272852 -0.558670
v 0.293328 -0.856493 -0.558669
v 0.293328 1.129345 -0.558670
v 0.293328 -0.856493 -0.511718
v 0.293328 1.129345 -0.511718
v 0.293328 0.348032 -0.511718
v 0.078223 -0.243272 -0.546182
v 0.013264 -0.243272 -0.546182
v 0.293328 0.738688 -0.511718
v 0.013264 -0.243272 -0.562020
v 0.628114 -1.000000 -0.558669
v 0.597564 -0.856493 -0.558669
v 0.597564 -0.856493 -0.511718
v 0.597564 0.348032 -0.511718
v 0.597564 0.738688 -0.511718
v 0.078223 -0.243272 -0.562020
v 0.628114 1.272852 -0.558670
v 0.597564 1.129345 -0.558670
v 0.597564 1.129345 -0.511718
v 0.013264 0.076550 -0.562020
v 0.078223 0.076550 -0.562020
v 0.293328 0.738688 -0.511718
v 0.293328 0.348032 -0.511718
v 0.597564 0.348032 -0.511718
v 0.597564 0.738688 -0.511718
v 0.293328 0.738688 -0.542618
v 0.293328 0.348032 -0.542618
v 0.597564 0.348032 -0.542618
v 0.597564 0.738688 -0.542618
v 0.318366 0.706538 -0.542618
v 0.318366 0.380182 -0.542618
v 0.572526 0.380182 -0.542618
v 0.572526 0.706538 -0.542618
v 0.318366 0.706538 -0.509725
v 0.318366 0.380182 -0.509725
v 0.572526 0.380182 -0.509725
v 0.572526 0.706538 -0.509725
v 0.000000 1.272852 -0.481255
v 0.968986 1.272852 -0.481255
v 0.968986 -1.000000 -0.481255
v 0.000000 -1.000000 -0.481255
v 0.000000 0.378615 -0.481255
v 0.968986 0.378615 -0.481255
v 0.000000 0.825734 -0.481255
v 0.968986 0.825734 -0.481255
v 0.241678 -1.000000 -0.481255
v 0.241678 1.272852 -0.481255
v 0.628114 1.272852 -0.481255
v 0.628114 -1.000000 -0.481255
v 0.054607 -0.142196 -0.600285
v 0.054607 -0.119589 -0.600285
v 0.034343 -0.119589 -0.600285
v 0.034343 -0.142196 -0.600285
v 0.034343 -0.009725 -0.600285
v 0.054607 -0.009725 -0.600285
v 0.034343 0.012882 -0.600285
v 0.054607 0.012882 -0.600285
v 0.049551 -0.132534 -0.584987
v 0.039399 -0.132534 -0.584987
v 0.049551 -0.132534 -0.596312
v 0.039399 -0.132534 -0.596312
v 0.049551 -0.007678 -0.596312
v 0.049551 -0.007678 -0.584987
v 0.039399 -0.007678 -0.584987
v 0.039399 -0.007678 -0.596312
vt 0.7506 0.0775
vt 0.9999 0.0775
vt 0.8936 0.2210
vt 0.6973 0.2210
vt 0.7506 0.0001
vt 0.9999 0.0001
vt 0.2046 0.6870
vt 0.0078 0.6870
vt 0.0078 0.5904
vt 0.2046 0.5904
vt 0.3518 0.2679
vt 0.0001 0.2679
vt 0.0001 0.1905
vt 0.3518 0.1905
vt 0.4030 0.6551
vt 0.9329 0.6551
vt 0.9329 0.6864
vt 0.4030 0.6864
vt 0.0710 0.4575
vt 0.2428 0.4575
vt 0.3895 0.5840
vt 0.9961 0.5840
vt 0.1064 0.0470
vt 0.3833 0.0470
vt 0.3974 0.3997
vt 0.3974 0.3008
vt 1.0038 0.3008
vt 1.0038 0.3997
vt 0.1064 0.0001
vt 0.3833 0.0001
vt 0.8936 0.2679
vt 0.6973 0.2679
vt 0.0710 0.3989
vt 0.2428 0.3989
vt 0.9446 0.4575
vt 0.4147 0.4575
vt 0.4147 0.3989
vt 0.9446 0.3989
vt 0.2007 0.3997
vt 0.2007 0.3008
vt 0.1928 0.5840
vt 0.2311 0.6551
vt 1.0078 0.5904
vt 0.4013 0.5904
vt 0.2311 0.6864
vt 1.0078 0.6870
vt 0.4013 0.6870
vt 0.0593 0.6551
vt 0.0593 0.6864
vt -0.0039 0.5840
vt 0.0040 0.3997
vt 0.0040 0.3008
vt 0.0040 0.5578
vt 0.2007 0.5578
vt 0.0793 0.2701
vt 0.0001 0.3180
vt 0.0290 0.0001
vt 0.0841 0.0581
vt 0.0000 0.0000
vt 0.0000 0.0000
vt 0.0000 0.0000
vt 0.0000 0.0000
vt 0.3833 0.2210
vt 0.3833 0.2679
vt 0.8936 0.0470
vt 0.6973 0.0470
vt 0.6973 0.0001
vt 0.8936 0.0001
vt 0.3974 0.5578
vt 1.0038 0.5578
vt 0.9999 0.1905
vt 0.7506 0.1905
vt 0.9999 0.2679
vt 0.7506 0.2679
vt 0.3518 0.0001
vt 0.3518 0.0775
vt 0.9207 0.0480
vt 0.9999 0.0001
vt 0.9710 0.3180
vt 0.9159 0.2599
vt 0.0001 0.0775
vt 0.1064 0.2210
vt 0.0001 0.0001
vt 0.3974 0.6972
vt 1.0038 0.6972
vt 0.1064 0.2679
vt 0.2007 0.6972
vt 0.0040 0.6972
vt 0.0001 0.0001
vt 0.9999 0.0001
vt 0.9999 0.0985
vt 0.0001 0.0985
vt 0.0000 0.0000
vt 0.0000 0.0000
vt 0.0000 0.0000
vt 0.0000 0.0000
vt 0.0000 0.0791
vt 1.0000 0.0791
vt 0.9177 0.1453
vt 0.0823 0.1453
vt 1.0000 0.0000
vt 1.0000 0.2295
vt 0.0000 0.2295
vt 0.0000 0.1504
vt 1.0000 0.1504
vt 0.9999 0.3056
vt 0.0001 0.3056
vt 0.0001 0.2072
vt 0.9999 0.2072
vt 0.9177 0.0842
vt 0.0823 0.0842
vt 0.0823 0.0000
vt 0.9177 0.0000
vt 0.0823 0.1048
vt 0.9177 0.1048
vt 0.9177 0.2008
vt 0.0823 0.2008
vt 0.0823 0.0001
vt 0.9177 0.0001
vt 0.9177 0.3056
vt 0.0823 0.3056
vt 0.9177 0.2295
vt 0.0823 0.2295
vt 0.7506 0.0775
vt 0.6973 0.2210
vt 0.8936 0.2210
vt 0.7506 0.0001
vt 0.2046 0.6870
vt 0.2046 0.5904
vt 0.0078 0.5904
vt 0.0078 0.6870
vt 0.3895 0.5324
vt 0.9961 0.5324
vt 0.3518 0.2679
vt 0.3518 0.1905
vt 0.0001 0.1905
vt 0.0001 0.2679
vt 0.4030 0.6551
vt 0.4030 0.6864
vt 0.9329 0.6864
vt 0.9329 0.6551
vt 0.2428 0.4575
vt 0.0710 0.4575
vt 0.3833 0.0470
vt 0.1064 0.0470
vt 0.3974 0.3997
vt 1.0038 0.3997
vt 1.0038 0.3008
vt 0.3974 0.3008
vt 0.3833 0.0001
vt 0.1064 0.0001
vt 0.6973 0.2679
vt 0.8936 0.2679
vt 0.2428 0.3989
vt 0.0710 0.3989
vt 0.9446 0.4575
vt 0.9446 0.3989
vt 0.4147 0.3989
vt 0.4147 0.4575
vt 0.2007 0.3997
vt 0.2007 0.3008
vt 0.2311 0.6551
vt 1.0078 0.5904
vt 0.4013 0.5904
vt 0.2311 0.6864
vt 0.1928 0.5324
vt 1.0078 0.6870
vt 0.4013 0.6870
vt -0.0039 0.5324
vt 0.0593 0.6551
vt 0.0593 0.6864
vt 0.0040 0.3997
vt 0.0040 0.3008
vt 0.0040 0.5578
vt 0.2007 0.5578
vt 0.0793 0.2701
vt 0.0841 0.0581
vt 0.0290 0.0001
vt 0.0001 0.3180
vt 0.0000 0.0000
vt 0.0000 0.0000
vt 0.0000 0.0000
vt 0.0000 0.0000
vt 0.3833 0.2210
vt 0.3833 0.2679
vt 0.8936 0.0470
vt 0.8936 0.0001
vt 0.6973 0.0001
vt 0.6973 0.0470
vt 0.3974 0.5578
vt 1.0038 0.5578
vt 0.7506 0.1905
vt 0.7506 0.2679
vt 0.3518 0.0001
vt 0.3518 0.0775
vt 0.9207 0.0480
vt 0.9159 0.2599
vt 0.9710 0.3180
vt 0.9999 0.0001
vt 0.0001 0.0775
vt 0.1064 0.2210
vt 0.0001 0.0001
vt 0.3974 0.6972
vt 1.0038 0.6972
vt 0.1064 0.2679
vt 0.2007 0.6972
vt 0.0040 0.6972
vt 0.0001 0.0001
vt 0.0001 0.0985
vt 0.9999 0.0985
vt 0.9999 0.0001
vt 0.0000 0.0000
vt 0.0000 0.0000
vt 0.0000 0.0000
vt 0.0000 0.0000
vt 0.0000 0.0791
vt 0.0823 0.1453
vt 0.9177 0.1453
vt 1.0000 0.0791
vt 1.0000 0.0000
vt 1.0000 0.2295
vt 1.0000 0.1504
vt 0.0000 0.1504
vt 0.0000 0.2295
vt 0.9999 0.3056
vt 0.9999 0.2072
vt 0.0001 0.2072
vt 0.0001 0.3056
vt 0.9177 0.0842
vt 0.9177 0.0000
vt 0.0823 0.0000
vt 0.0823 0.0842
vt 0.9177 0.1048
vt 0.0823 0.1048
vt 0.0823 0.2008
vt 0.9177 0.2008
vt 0.9177 0.0001
vt 0.0823 0.0001
vt 0.0823 0.3056
vt 0.9177 0.3056
vt 0.0823 0.2295
vt 0.9177 0.2295
vt 0.1318 0.4688
vt 0.1951 0.4688
vt 0.1951 0.5373
vt 0.1318 0.5373
vt 0.3955 0.4688
vt 0.4588 0.4688
vt 0.4588 0.5373
vt 0.3955 0.5373
vt 0.3780 0.5375
vt 0.3780 0.5718
vt 0.0001 0.5718
vt 0.0001 0.5375
vt 0.3780 0.6378
vt 0.3780 0.6695
vt 0.0001 0.6695
vt 0.0001 0.6378
vt 0.1951 0.3182
vt 0.2635 0.3182
vt 0.2635 0.4688
vt 0.4588 0.3182
vt 0.5272 0.3182
vt 0.5272 0.4688
vt 0.1318 0.3182
vt 0.3955 0.3182
vt 0.2638 0.3182
vt 0.3271 0.3182
vt 0.3271 0.4688
vt 0.2638 0.4688
vt 0.0001 0.3182
vt 0.0634 0.3182
vt 0.0634 0.4688
vt 0.0001 0.4688
vt 0.3780 0.6035
vt 0.0001 0.6035
vt 0.1318 0.4688
vt 0.1318 0.5373
vt 0.1951 0.5373
vt 0.1951 0.4688
vt 0.3955 0.4688
vt 0.3955 0.5373
vt 0.4588 0.5373
vt 0.4588 0.4688
vt 0.3780 0.5375
vt 0.0001 0.5375
vt 0.0001 0.5718
vt 0.3780 0.5718
vt 0.3780 0.6378
vt 0.0001 0.6378
vt 0.0001 0.6695
vt 0.3780 0.6695
vt 0.1951 0.3182
vt 0.2635 0.4688
vt 0.2635 0.3182
vt 0.4588 0.3182
vt 0.5272 0.4688
vt 0.5272 0.3182
vt 0.1318 0.3182
vt 0.3955 0.3182
vt 0.2638 0.3182
vt 0.2638 0.4688
vt 0.3271 0.4688
vt 0.3271 0.3182
vt 0.0001 0.3182
vt 0.0001 0.4688
vt 0.0634 0.4688
vt 0.0634 0.3182
vt 0.0001 0.6035
vt 0.3780 0.6035
vt 0.0001 0.8037
vt 0.0001 0.0001
vt 0.9999 0.0001
vt 0.9999 0.8037
vt 0.0001 0.8037
vt 0.9999 0.8037
vt 0.9999 0.0001
vt 0.0001 0.0001
vn 0.0000 0.0000 -1.0000
vn 0.0000 1.0000 0.0000
vn -1.0000 0.0000 0.0000
vn 0.0000 -1.0000 0.0000
vn 1.0000 0.0000 0.0000
vn 0.0000 0.0000 1.0000
usemtl porta
s off
f 32/1/1 100/2/1 10/3/1 34/4/1
f 74/5/2 165/6/2 100/2/2 32/1/2
f 72/7/3 69/8/3 6/9/3 23/10/3
f 76/11/4 70/12/4 5/13/4 42/14/4
f 19/15/3 9/16/3 13/17/3 21/18/3
f 23/10/1 6/9/1 8/19/1 24/20/1
f 112/21/1 99/22/1 9/16/1 19/15/1
f 42/14/1 5/13/1 7/23/1 43/24/1
f 37/25/1 21/26/1 13/27/1 35/28/1
f 43/24/2 7/23/2 11/29/2 44/30/2
f 34/4/4 10/3/4 14/31/4 36/32/4
f 24/20/5 8/19/5 12/33/5 25/34/5
f 7/35/5 18/36/5 20/37/5 11/38/5
f 40/39/1 28/40/1 21/26/1 37/25/1
f 122/41/1 112/21/1 19/15/1 27/42/1
f 5/43/1 17/44/1 18/36/1 7/35/1
f 27/42/3 19/15/3 21/18/3 28/45/3
f 70/46/3 71/47/3 17/44/3 5/43/3
f 10/48/3 27/42/3 28/45/3 14/49/3
f 100/50/1 122/41/1 27/42/1 10/48/1
f 36/51/1 14/52/1 28/40/1 40/39/1
f 18/36/5 24/20/5 25/34/5 20/37/5
f 17/44/1 23/10/1 24/20/1 18/36/1
f 71/47/3 72/7/3 23/10/3 17/44/3
f 50/53/1 36/51/1 40/39/1 46/54/1
f 52/55/2 29/56/2 30/57/2 51/58/2
f 45/59/6 46/60/6 56/61/6 55/62/6
f 49/63/4 34/4/4 36/32/4 50/64/4
f 9/65/2 33/66/2 35/67/2 13/68/2
f 45/69/1 37/25/1 35/28/1 44/70/1
f 99/71/1 31/72/1 33/66/1 9/65/1
f 168/73/4 73/74/4 31/72/4 99/71/4
f 75/75/2 74/5/2 32/1/2 48/76/2
f 48/76/1 32/1/1 34/4/1 49/63/1
f 41/77/4 39/78/4 38/79/4 47/80/4
f 6/81/1 48/76/1 49/63/1 8/82/1
f 69/83/2 75/75/2 48/76/2 6/81/2
f 20/84/1 45/69/1 44/70/1 11/85/1
f 8/82/4 49/63/4 50/64/4 12/86/4
f 25/87/1 46/54/1 45/69/1 20/84/1
f 12/88/1 50/53/1 46/54/1 25/87/1
f 33/66/2 43/24/2 44/30/2 35/67/2
f 31/72/1 42/14/1 43/24/1 33/66/1
f 73/74/4 76/11/4 42/14/4 31/72/4
f 56/89/2 53/90/2 57/91/2 60/92/2
f 37/93/6 45/59/6 55/62/6 54/94/6
f 40/95/6 37/93/6 54/94/6 53/96/6
f 46/60/6 40/95/6 53/96/6 56/61/6
f 57/97/1 58/98/1 62/99/1 61/100/1
f 53/96/5 54/101/5 58/98/5 57/97/5
f 55/102/3 56/103/3 60/104/3 59/105/3
f 54/106/4 55/107/4 59/108/4 58/109/4
f 63/110/5 64/111/5 68/112/5 67/113/5
f 59/105/1 60/104/1 64/111/1 63/110/1
f 58/109/1 59/108/1 63/114/1 62/115/1
f 60/92/1 57/91/1 61/116/1 64/117/1
f 62/115/2 63/114/2 67/118/2 66/119/2
f 64/117/4 61/116/4 65/120/4 68/121/4
f 61/100/3 62/99/3 66/122/3 65/123/3
f 128/124/1 130/125/1 104/126/1 100/2/1
f 174/127/2 128/124/2 100/2/2 165/6/2
f 172/128/5 118/129/5 98/130/5 166/131/5
f 169/132/3 112/21/3 99/22/3 168/133/3
f 176/134/4 138/135/4 97/136/4 167/137/4
f 114/138/5 116/139/5 107/140/5 103/141/5
f 118/129/1 119/142/1 102/143/1 98/130/1
f 112/21/1 114/138/1 103/141/1 99/22/1
f 138/135/1 139/144/1 101/145/1 97/136/1
f 133/146/1 131/147/1 107/148/1 116/149/1
f 139/144/2 140/150/2 105/151/2 101/145/2
f 130/125/4 132/152/4 108/153/4 104/126/4
f 119/142/3 120/154/3 106/155/3 102/143/3
f 101/156/3 105/157/3 115/158/3 113/159/3
f 136/160/1 133/146/1 116/149/1 124/161/1
f 122/41/1 123/162/1 114/138/1 112/21/1
f 97/163/1 101/156/1 113/159/1 111/164/1
f 123/162/5 124/165/5 116/139/5 114/138/5
f 171/166/3 122/41/3 112/21/3 169/132/3
f 167/167/5 97/163/5 111/164/5 170/168/5
f 165/169/3 100/50/3 122/41/3 171/166/3
f 104/170/5 108/171/5 124/165/5 123/162/5
f 100/50/1 104/170/1 123/162/1 122/41/1
f 132/172/1 136/160/1 124/161/1 108/173/1
f 113/159/3 115/158/3 120/154/3 119/142/3
f 111/164/1 113/159/1 119/142/1 118/129/1
f 170/168/5 111/164/5 118/129/5 172/128/5
f 146/174/1 142/175/1 136/160/1 132/172/1
f 148/176/2 147/177/2 126/178/2 125/179/2
f 141/180/6 151/181/6 152/182/6 142/183/6
f 145/184/4 146/185/4 132/152/4 130/125/4
f 103/186/2 107/187/2 131/188/2 129/189/2
f 141/190/1 140/191/1 131/147/1 133/146/1
f 99/71/1 103/186/1 129/189/1 127/192/1
f 168/73/4 99/71/4 127/192/4 173/193/4
f 175/194/2 144/195/2 128/124/2 174/127/2
f 144/195/1 145/184/1 130/125/1 128/124/1
f 137/196/4 143/197/4 134/198/4 135/199/4
f 98/200/1 102/201/1 145/184/1 144/195/1
f 166/202/2 98/200/2 144/195/2 175/194/2
f 115/203/1 105/204/1 140/191/1 141/190/1
f 102/201/4 106/205/4 146/185/4 145/184/4
f 120/206/1 115/203/1 141/190/1 142/175/1
f 106/207/1 120/206/1 142/175/1 146/174/1
f 129/189/2 131/188/2 140/150/2 139/144/2
f 127/192/1 129/189/1 139/144/1 138/135/1
f 173/193/4 127/192/4 138/135/4 176/134/4
f 152/208/2 156/209/2 153/210/2 149/211/2
f 133/212/6 150/213/6 151/181/6 141/180/6
f 136/214/6 149/215/6 150/213/6 133/212/6
f 142/183/6 152/182/6 149/215/6 136/214/6
f 153/216/1 157/217/1 158/218/1 154/219/1
f 149/215/3 153/216/3 154/219/3 150/220/3
f 151/221/5 155/222/5 156/223/5 152/224/5
f 150/225/4 154/226/4 155/227/4 151/228/4
f 159/229/3 163/230/3 164/231/3 160/232/3
f 155/222/1 159/229/1 160/232/1 156/223/1
f 154/226/1 158/233/1 159/234/1 155/227/1
f 156/209/1 160/235/1 157/236/1 153/210/1
f 158/233/2 162/237/2 163/238/2 159/234/2
f 160/235/4 164/239/4 161/240/4 157/236/4
f 157/217/5 161/241/5 162/242/5 158/218/5
usemtl porta_metal_old_disp.png
f 51/58/5 30/57/5 39/78/5 41/77/5
f 47/80/3 38/79/3 29/56/3 52/55/3
f 147/177/3 137/196/3 135/199/3 126/178/3
f 143/197/5 148/176/5 125/179/5 134/198/5
usemtl metal
f 84/243/1 83/244/1 81/245/1 82/246/1
f 78/247/1 79/248/1 80/249/1 77/250/1
f 86/251/5 88/252/5 92/253/5 91/254/5
f 85/255/6 86/256/6 91/257/6 90/258/6
f 52/55/1 51/58/1 41/77/1 47/80/1
f 22/259/5 15/260/5 81/261/5 83/244/5
f 2/262/5 4/263/5 80/264/5 79/248/5
f 26/265/2 22/259/2 83/244/2 84/243/2
f 1/266/2 2/262/2 79/248/2 78/247/2
f 4/267/4 3/268/4 77/269/4 80/270/4
f 15/271/4 16/272/4 82/273/4 81/274/4
f 3/268/3 1/266/3 78/247/3 77/269/3
f 16/272/3 26/265/3 84/243/3 82/273/3
f 88/252/1 87/275/1 89/276/1 92/253/1
f 87/275/3 85/255/3 90/258/3 89/276/3
f 184/277/1 182/278/1 181/279/1 183/280/1
f 178/281/1 177/282/1 180/283/1 179/284/1
f 186/285/3 191/286/3 192/287/3 188/288/3
f 185/289/6 190/290/6 191/291/6 186/292/6
f 148/176/1 143/197/1 137/196/1 147/177/1
f 117/293/3 183/280/3 181/294/3 109/295/3
f 94/296/3 179/284/3 180/297/3 96/298/3
f 121/299/2 184/277/2 183/280/2 117/293/2
f 93/300/2 178/281/2 179/284/2 94/296/2
f 96/301/4 180/302/4 177/303/4 95/304/4
f 109/305/4 181/306/4 182/307/4 110/308/4
f 95/304/5 177/303/5 178/281/5 93/300/5
f 110/308/5 182/307/5 184/277/5 121/299/5
f 188/288/1 192/287/1 189/309/1 187/310/1
f 187/310/5 189/309/5 190/290/5 185/289/5
usemtl vidro
f 68/311/1 65/312/1 66/313/1 67/314/1
f 164/315/1 163/316/1 162/317/1 161/318/1
