# Blender v2.78 (sub 0) OBJ File: 'ap01_terrio.blend'
# www.blender.org
mtllib ramp.mtl
o Cube_Cube.001
v 1.704628 0.039800 14.256787
v 1.704628 1.125141 14.256787
v 1.704628 0.039800 12.256787
v 1.704628 1.125141 12.256787
v 3.901323 0.039800 14.256787
v 3.901323 1.125141 14.256787
v 3.901323 0.039800 12.256787
v 3.901323 1.125141 12.256787
v -2.286700 0.039800 14.256787
v -2.286700 0.124391 14.256787
v -2.286700 0.039800 12.256787
v -2.286700 0.124391 12.256787
v 1.693833 2.022203 13.959598
v 1.704628 1.917275 14.111333
v 3.764840 2.022203 14.111333
v -2.350006 0.874755 14.074782
v 3.775635 1.917275 12.256787
v 3.657872 2.022203 13.959598
v 3.775635 1.917275 14.111333
v 3.764840 2.022203 12.256787
v 3.668667 1.917275 12.256787
v 1.693833 2.022203 14.111333
v 1.704628 1.917275 13.959598
v -2.350006 0.874755 13.923047
v 3.657872 2.022203 12.256787
v -2.360801 0.979683 14.074782
v 3.668667 1.917275 13.959598
v -2.360801 0.979683 13.923047
v 3.562737 1.065051 14.067526
v 3.614707 1.065051 13.984163
v 3.654297 1.065051 14.067526
v 3.706268 1.065051 13.984163
v 3.562737 1.920390 14.067526
v 3.614707 1.920390 13.984163
v 3.706268 1.920390 13.984163
v 3.654297 1.920390 14.067526
v 1.743772 1.065051 14.067526
v 1.795743 1.065051 13.984163
v 1.835333 1.065051 14.067526
v 1.887303 1.065051 13.984163
v 1.743772 1.920390 14.067526
v 1.795743 1.920390 13.984163
v 1.887303 1.920390 13.984163
v 1.835333 1.920390 14.067526
v -0.438985 0.563496 14.067526
v -0.387015 0.563496 13.984163
v -0.347425 0.563496 14.067526
v -0.295454 0.563496 13.984163
v -0.438985 1.409255 14.067526
v -0.387015 1.409255 13.984163
v -0.295454 1.409255 13.984163
v -0.347425 1.409255 14.067526
v -2.335905 -0.024848 14.067526
v -2.283935 -0.024848 13.984163
v -2.244344 -0.024848 14.067526
v -2.192374 -0.024848 13.984163
v -2.335905 0.948794 14.067526
v -2.283935 0.738576 13.984163
v -2.192374 0.948794 13.984163
v -2.244344 0.948794 14.067526
vt 0.6659 0.7919
vt 0.7737 0.0882
vt 2.2159 0.1710
vt 2.1598 0.9244
vt 2.9710 0.1863
vt 2.2441 -1.2205
vt 2.9993 -1.2052
vt 2.2108 -1.9658
vt 0.7842 -1.1799
vt 0.7024 -1.8983
vt -1.9530 0.1883
vt -1.9402 0.1328
vt -1.9402 -1.2635
vt -1.9525 -1.3197
vt -1.9993 0.1328
vt -1.9993 -1.2635
vt 2.1288 1.3230
vt 2.1983 1.5055
vt 0.8093 1.5106
vt 0.8090 1.3214
vt -0.7577 2.4906
vt -1.8977 2.4906
vt -1.8977 2.3594
vt -0.7577 2.3594
vt 0.8110 1.6407
vt 0.8104 1.8276
vt -1.9888 1.8295
vt -1.9878 1.6329
vt 2.1172 1.8288
vt 2.1915 1.6316
vt -0.7577 2.2264
vt -1.9993 2.2264
vt -0.7577 2.0952
vt -1.9993 2.0952
vt -1.8977 1.9621
vt -0.7577 1.9621
vt -1.9979 1.5077
vt -1.9987 1.3186
vt 0.3366 1.9621
vt 0.3366 2.1509
vt 0.2660 2.1509
vt 0.2660 1.9621
vt 2.1244 1.9594
vt 0.8088 1.9576
vt 0.4083 1.9621
vt 0.4083 2.0952
vt 0.3381 2.1086
vt 0.3381 1.9755
vt -1.9993 1.9594
vt -0.3123 1.9621
vt -0.2466 1.9621
vt -0.2466 2.9491
vt -0.3123 2.9491
vt -0.4394 1.9621
vt -0.3736 1.9621
vt -0.3736 2.9491
vt -0.4394 2.9491
vt -0.5679 1.9621
vt -0.5021 1.9621
vt -0.5021 2.9491
vt -0.5679 2.9491
vt -0.6950 1.9621
vt -0.6292 1.9621
vt -0.6292 2.9491
vt -0.6950 2.9491
vt -0.7563 1.9621
vt -0.7563 2.9491
vt -0.5007 1.9621
vt -0.5007 2.9491
vt -0.0568 1.9621
vt 0.0090 1.9621
vt 0.0090 2.9491
vt -0.0568 2.9491
vt -0.1838 1.9621
vt -0.1181 1.9621
vt -0.1181 2.9491
vt -0.1838 2.9491
vt -0.2451 1.9621
vt -0.2451 2.9491
vt 0.1988 1.9621
vt 0.2646 1.9621
vt 0.2646 2.9491
vt 0.1988 2.9491
vt 0.0718 1.9621
vt 0.1375 1.9621
vt 0.1375 2.9491
vt 0.0718 2.9491
vt 0.0105 1.9621
vt 0.0105 2.9491
vn 0.0000 0.0000 -1.0000
vn -0.0898 0.7272 -0.6805
vn 0.5773 0.5773 -0.5773
vn 0.7071 0.0000 -0.7071
vn 0.5773 0.5773 0.5773
vn 0.7071 0.0000 0.7071
vn -0.0898 0.7272 0.6805
vn 0.0000 0.0000 1.0000
vn -0.7071 0.0000 -0.7071
vn -0.6358 0.4960 -0.5914
vn -0.6358 0.4960 0.5914
vn -0.7071 0.0000 0.7071
vn -0.2935 -0.9153 -0.2758
vn 0.6089 -0.5495 0.5721
vn 0.0812 -0.6705 0.7374
vn 0.0885 -0.6717 -0.7355
vn -0.5443 -0.6032 -0.5829
vn -0.3067 0.8933 -0.3284
vn -0.6089 0.5495 -0.5721
vn -0.0946 0.7262 0.6809
vn -0.0894 0.7287 -0.6789
vn -0.6626 0.4632 -0.5885
vn -0.6677 0.4633 0.5827
vn 0.5443 0.6032 0.5829
vn 0.5443 0.6032 -0.5829
vn 0.6089 -0.5495 -0.5721
vn -0.4715 -0.6751 0.5673
vn -0.4676 -0.6735 -0.5725
vn 0.4852 0.0000 0.8744
vn 0.8744 0.0000 -0.4852
vn -0.4852 0.0000 -0.8744
vn -0.8744 0.0000 0.4852
vn 0.9537 0.0000 0.3007
vn -0.2669 0.0000 0.9637
vn -0.4829 0.0000 -0.8757
g Cube_Cube.001_None
usemtl None
s 1
f 3/1/1 4/2/2 8/3/3 7/4/4
f 7/5/4 8/3/3 6/6/5 5/7/6
f 5/8/6 6/6/5 2/9/7 1/10/8
f 8/3/3 4/2/2 2/9/7 6/6/5
f 4/2/2 3/1/1 11/11/9 12/12/10
f 2/9/7 4/2/2 12/12/10 10/13/11
f 1/10/8 2/9/7 10/13/11 9/14/12
f 10/13/11 12/12/10 11/15/9 9/16/12
g Cube_Cube.001_None_NONE
usemtl None_NONE
f 27/17/13 19/18/14 14/19/15 23/20/16
f 21/21/17 27/22/13 18/23/18 25/24/19
f 22/25/20 13/26/21 28/27/22 26/28/23
f 18/29/18 13/26/21 22/25/20 15/30/24
f 20/31/25 25/24/19 18/23/18 15/32/24
f 17/33/26 19/34/14 27/35/13 21/36/17
f 14/19/15 16/37/27 24/38/28 23/20/16
f 24/39/28 16/40/27 26/41/23 28/42/22
f 27/43/13 23/44/16 13/26/21 18/29/18
f 14/19/15 19/18/14 15/30/24 22/25/20
f 17/45/26 21/46/17 25/47/19 20/48/25
f 16/37/27 14/19/15 22/25/20 26/28/23
f 23/44/16 24/49/28 28/27/22 13/26/21
f 19/34/14 17/33/26 20/31/25 15/32/24
f 39/50/29 40/51/30 43/52/30 44/53/29
f 38/54/31 37/55/32 41/56/32 42/57/31
f 31/58/29 32/59/30 35/60/30 36/61/29
f 30/62/31 29/63/32 33/64/32 34/65/31
f 29/63/32 31/58/29 36/61/29 33/64/32
f 32/66/30 30/62/31 34/65/31 35/67/30
f 37/55/32 39/50/29 44/53/29 41/56/32
f 40/68/30 38/54/31 42/57/31 43/69/30
f 47/70/29 48/71/30 51/72/30 52/73/29
f 46/74/31 45/75/32 49/76/32 50/77/31
f 45/75/32 47/70/29 52/73/29 49/76/32
f 48/78/30 46/74/31 50/77/31 51/79/30
f 55/80/29 56/81/30 59/82/33 60/83/29
f 54/84/31 53/85/32 57/86/34 58/87/35
f 53/85/32 55/80/29 60/83/29 57/86/34
f 56/88/30 54/84/31 58/87/35 59/89/33
